<mxfile host="app.diagrams.net" modified="2022-03-31T05:22:52.364Z" agent="5.0 (Windows NT 10.0; Win64; x64) AppleWebKit/537.36 (KHTML, like Gecko) Chrome/99.0.4844.74 Safari/537.36 Edg/99.0.1150.55" etag="jjqRn2plkRQc1UlPAVEX" version="17.3.0" type="github">
  <diagram id="24S-3uZ9o3oFJGHXSIlB" name="Page-1">
    <mxGraphModel dx="2272" dy="922" grid="1" gridSize="10" guides="1" tooltips="1" connect="1" arrows="1" fold="1" page="1" pageScale="1" pageWidth="850" pageHeight="1100" math="0" shadow="0">
      <root>
        <mxCell id="0" />
        <mxCell id="1" parent="0" />
        <mxCell id="C-41xfws82V7MeyMws4P-3" value="Web Services" style="rounded=1;whiteSpace=wrap;html=1;shadow=1;glass=0;sketch=0;fillColor=#f5f5f5;fontColor=#333333;strokeColor=#666666;fontStyle=1" parent="1" vertex="1">
          <mxGeometry x="365" y="415" width="120" height="60" as="geometry" />
        </mxCell>
        <mxCell id="RIXVrHPqZjZGEqXnlm6z-10" style="edgeStyle=orthogonalEdgeStyle;rounded=0;orthogonalLoop=1;jettySize=auto;html=1;entryX=0.25;entryY=0;entryDx=0;entryDy=0;endArrow=none;endFill=0;" parent="1" source="C-41xfws82V7MeyMws4P-4" target="C-41xfws82V7MeyMws4P-3" edge="1">
          <mxGeometry relative="1" as="geometry" />
        </mxCell>
        <mxCell id="C-41xfws82V7MeyMws4P-4" value="Building" style="ellipse;whiteSpace=wrap;html=1;aspect=fixed;fillColor=#dae8fc;strokeColor=#6c8ebf;" parent="1" vertex="1">
          <mxGeometry x="235" y="310" width="80" height="80" as="geometry" />
        </mxCell>
        <mxCell id="RIXVrHPqZjZGEqXnlm6z-11" style="edgeStyle=orthogonalEdgeStyle;rounded=0;orthogonalLoop=1;jettySize=auto;html=1;entryX=0.5;entryY=0;entryDx=0;entryDy=0;endArrow=none;endFill=0;" parent="1" source="RIXVrHPqZjZGEqXnlm6z-1" target="C-41xfws82V7MeyMws4P-3" edge="1">
          <mxGeometry relative="1" as="geometry" />
        </mxCell>
        <mxCell id="RIXVrHPqZjZGEqXnlm6z-1" value="Policies" style="ellipse;whiteSpace=wrap;html=1;aspect=fixed;fillColor=#d5e8d4;strokeColor=#82b366;" parent="1" vertex="1">
          <mxGeometry x="385" y="230" width="80" height="80" as="geometry" />
        </mxCell>
        <mxCell id="RIXVrHPqZjZGEqXnlm6z-12" style="edgeStyle=orthogonalEdgeStyle;rounded=0;orthogonalLoop=1;jettySize=auto;html=1;entryX=0.75;entryY=0;entryDx=0;entryDy=0;endArrow=none;endFill=0;" parent="1" source="RIXVrHPqZjZGEqXnlm6z-2" target="C-41xfws82V7MeyMws4P-3" edge="1">
          <mxGeometry relative="1" as="geometry" />
        </mxCell>
        <mxCell id="RIXVrHPqZjZGEqXnlm6z-2" value="Monitoring" style="ellipse;whiteSpace=wrap;html=1;aspect=fixed;fillColor=#ffe6cc;strokeColor=#d79b00;" parent="1" vertex="1">
          <mxGeometry x="535" y="310" width="80" height="80" as="geometry" />
        </mxCell>
        <mxCell id="RIXVrHPqZjZGEqXnlm6z-9" style="edgeStyle=orthogonalEdgeStyle;rounded=0;orthogonalLoop=1;jettySize=auto;html=1;entryX=0.25;entryY=1;entryDx=0;entryDy=0;endArrow=none;endFill=0;" parent="1" source="RIXVrHPqZjZGEqXnlm6z-3" target="C-41xfws82V7MeyMws4P-3" edge="1">
          <mxGeometry relative="1" as="geometry" />
        </mxCell>
        <mxCell id="RIXVrHPqZjZGEqXnlm6z-3" value="Scaling" style="ellipse;whiteSpace=wrap;html=1;aspect=fixed;fillColor=#fff2cc;strokeColor=#d6b656;" parent="1" vertex="1">
          <mxGeometry x="235" y="500" width="80" height="80" as="geometry" />
        </mxCell>
        <mxCell id="RIXVrHPqZjZGEqXnlm6z-8" style="edgeStyle=orthogonalEdgeStyle;rounded=0;orthogonalLoop=1;jettySize=auto;html=1;entryX=0.75;entryY=1;entryDx=0;entryDy=0;endArrow=none;endFill=0;" parent="1" source="RIXVrHPqZjZGEqXnlm6z-4" target="C-41xfws82V7MeyMws4P-3" edge="1">
          <mxGeometry relative="1" as="geometry" />
        </mxCell>
        <mxCell id="RIXVrHPqZjZGEqXnlm6z-4" value="Hosting" style="ellipse;whiteSpace=wrap;html=1;aspect=fixed;fillColor=#e1d5e7;strokeColor=#9673a6;" parent="1" vertex="1">
          <mxGeometry x="535" y="500" width="80" height="80" as="geometry" />
        </mxCell>
        <mxCell id="RIXVrHPqZjZGEqXnlm6z-7" style="edgeStyle=orthogonalEdgeStyle;rounded=0;orthogonalLoop=1;jettySize=auto;html=1;entryX=0.5;entryY=1;entryDx=0;entryDy=0;endArrow=none;endFill=0;" parent="1" source="RIXVrHPqZjZGEqXnlm6z-5" target="C-41xfws82V7MeyMws4P-3" edge="1">
          <mxGeometry relative="1" as="geometry" />
        </mxCell>
        <mxCell id="RIXVrHPqZjZGEqXnlm6z-5" value="Security" style="ellipse;whiteSpace=wrap;html=1;aspect=fixed;fillColor=#f8cecc;strokeColor=#b85450;fontStyle=1" parent="1" vertex="1">
          <mxGeometry x="385" y="580" width="80" height="80" as="geometry" />
        </mxCell>
        <mxCell id="RIXVrHPqZjZGEqXnlm6z-19" style="edgeStyle=none;rounded=0;orthogonalLoop=1;jettySize=auto;html=1;exitX=0;exitY=1;exitDx=0;exitDy=0;entryX=1;entryY=0;entryDx=0;entryDy=0;endArrow=none;endFill=0;fillColor=#d5e8d4;strokeColor=#82b366;" parent="1" source="RIXVrHPqZjZGEqXnlm6z-14" target="RIXVrHPqZjZGEqXnlm6z-1" edge="1">
          <mxGeometry relative="1" as="geometry" />
        </mxCell>
        <mxCell id="RIXVrHPqZjZGEqXnlm6z-14" value="Fix" style="ellipse;whiteSpace=wrap;html=1;aspect=fixed;fillColor=#d5e8d4;strokeColor=#82b366;" parent="1" vertex="1">
          <mxGeometry x="490" y="130" width="80" height="80" as="geometry" />
        </mxCell>
        <mxCell id="RIXVrHPqZjZGEqXnlm6z-20" style="edgeStyle=none;rounded=0;orthogonalLoop=1;jettySize=auto;html=1;entryX=0.5;entryY=0;entryDx=0;entryDy=0;endArrow=none;endFill=0;fillColor=#d5e8d4;strokeColor=#82b366;" parent="1" source="RIXVrHPqZjZGEqXnlm6z-15" target="RIXVrHPqZjZGEqXnlm6z-1" edge="1">
          <mxGeometry relative="1" as="geometry" />
        </mxCell>
        <mxCell id="RIXVrHPqZjZGEqXnlm6z-15" value="Change" style="ellipse;whiteSpace=wrap;html=1;aspect=fixed;fillColor=#d5e8d4;strokeColor=#82b366;" parent="1" vertex="1">
          <mxGeometry x="385" y="90" width="80" height="80" as="geometry" />
        </mxCell>
        <mxCell id="RIXVrHPqZjZGEqXnlm6z-18" style="rounded=0;orthogonalLoop=1;jettySize=auto;html=1;exitX=1;exitY=1;exitDx=0;exitDy=0;entryX=0;entryY=0;entryDx=0;entryDy=0;endArrow=none;endFill=0;fillColor=#d5e8d4;strokeColor=#82b366;" parent="1" source="RIXVrHPqZjZGEqXnlm6z-16" target="RIXVrHPqZjZGEqXnlm6z-1" edge="1">
          <mxGeometry relative="1" as="geometry" />
        </mxCell>
        <mxCell id="RIXVrHPqZjZGEqXnlm6z-16" value="Update" style="ellipse;whiteSpace=wrap;html=1;aspect=fixed;fillColor=#d5e8d4;strokeColor=#82b366;" parent="1" vertex="1">
          <mxGeometry x="280" y="130" width="80" height="80" as="geometry" />
        </mxCell>
        <mxCell id="RIXVrHPqZjZGEqXnlm6z-45" style="edgeStyle=none;rounded=0;orthogonalLoop=1;jettySize=auto;html=1;endArrow=none;endFill=0;fillColor=#dae8fc;strokeColor=#6c8ebf;" parent="1" source="RIXVrHPqZjZGEqXnlm6z-21" target="C-41xfws82V7MeyMws4P-4" edge="1">
          <mxGeometry relative="1" as="geometry" />
        </mxCell>
        <mxCell id="RIXVrHPqZjZGEqXnlm6z-21" value="Open Standards" style="ellipse;whiteSpace=wrap;html=1;aspect=fixed;fillColor=#dae8fc;strokeColor=#6c8ebf;" parent="1" vertex="1">
          <mxGeometry x="120" y="200" width="80" height="80" as="geometry" />
        </mxCell>
        <mxCell id="RIXVrHPqZjZGEqXnlm6z-46" style="edgeStyle=none;rounded=0;orthogonalLoop=1;jettySize=auto;html=1;endArrow=none;endFill=0;fillColor=#dae8fc;strokeColor=#6c8ebf;" parent="1" source="RIXVrHPqZjZGEqXnlm6z-22" target="C-41xfws82V7MeyMws4P-4" edge="1">
          <mxGeometry relative="1" as="geometry" />
        </mxCell>
        <mxCell id="RIXVrHPqZjZGEqXnlm6z-22" value="Web Server Infrastructure" style="ellipse;whiteSpace=wrap;html=1;aspect=fixed;fillColor=#dae8fc;strokeColor=#6c8ebf;" parent="1" vertex="1">
          <mxGeometry x="70" y="300" width="80" height="80" as="geometry" />
        </mxCell>
        <mxCell id="yy4eT_4TmovEYwxp9Cs3-31" style="edgeStyle=none;rounded=0;orthogonalLoop=1;jettySize=auto;html=1;endArrow=none;endFill=0;strokeColor=#B85450;" parent="1" source="RIXVrHPqZjZGEqXnlm6z-27" target="RIXVrHPqZjZGEqXnlm6z-5" edge="1">
          <mxGeometry relative="1" as="geometry" />
        </mxCell>
        <mxCell id="RIXVrHPqZjZGEqXnlm6z-27" value="Connections &amp;amp; Certificates" style="ellipse;whiteSpace=wrap;html=1;aspect=fixed;fillColor=#f8cecc;strokeColor=#B85450;" parent="1" vertex="1">
          <mxGeometry x="120" y="720" width="80" height="80" as="geometry" />
        </mxCell>
        <mxCell id="RIXVrHPqZjZGEqXnlm6z-34" style="edgeStyle=none;rounded=0;orthogonalLoop=1;jettySize=auto;html=1;endArrow=none;endFill=0;fillColor=#f8cecc;strokeColor=#B85450;" parent="1" source="RIXVrHPqZjZGEqXnlm6z-30" target="RIXVrHPqZjZGEqXnlm6z-5" edge="1">
          <mxGeometry relative="1" as="geometry" />
        </mxCell>
        <mxCell id="RIXVrHPqZjZGEqXnlm6z-30" value="Web Server" style="ellipse;whiteSpace=wrap;html=1;aspect=fixed;fillColor=#f8cecc;strokeColor=#B85450;" parent="1" vertex="1">
          <mxGeometry x="235" y="810" width="80" height="80" as="geometry" />
        </mxCell>
        <mxCell id="yy4eT_4TmovEYwxp9Cs3-34" style="edgeStyle=none;rounded=0;orthogonalLoop=1;jettySize=auto;html=1;endArrow=none;endFill=0;strokeColor=#B85450;" parent="1" source="RIXVrHPqZjZGEqXnlm6z-31" target="RIXVrHPqZjZGEqXnlm6z-5" edge="1">
          <mxGeometry relative="1" as="geometry" />
        </mxCell>
        <mxCell id="RIXVrHPqZjZGEqXnlm6z-31" value="Content" style="ellipse;whiteSpace=wrap;html=1;aspect=fixed;fillColor=#f8cecc;strokeColor=#B85450;" parent="1" vertex="1">
          <mxGeometry x="410" y="810" width="80" height="80" as="geometry" />
        </mxCell>
        <mxCell id="yy4eT_4TmovEYwxp9Cs3-33" style="edgeStyle=none;rounded=0;orthogonalLoop=1;jettySize=auto;html=1;endArrow=none;endFill=0;strokeColor=#B85450;" parent="1" source="RIXVrHPqZjZGEqXnlm6z-32" target="RIXVrHPqZjZGEqXnlm6z-5" edge="1">
          <mxGeometry relative="1" as="geometry" />
        </mxCell>
        <mxCell id="RIXVrHPqZjZGEqXnlm6z-32" value="Application" style="ellipse;whiteSpace=wrap;html=1;aspect=fixed;fillColor=#f8cecc;strokeColor=#B85450;" parent="1" vertex="1">
          <mxGeometry x="620" y="700" width="80" height="80" as="geometry" />
        </mxCell>
        <mxCell id="RIXVrHPqZjZGEqXnlm6z-44" style="edgeStyle=none;rounded=0;orthogonalLoop=1;jettySize=auto;html=1;endArrow=none;endFill=0;fillColor=#ffe6cc;strokeColor=#d79b00;" parent="1" source="RIXVrHPqZjZGEqXnlm6z-37" target="RIXVrHPqZjZGEqXnlm6z-2" edge="1">
          <mxGeometry relative="1" as="geometry" />
        </mxCell>
        <mxCell id="RIXVrHPqZjZGEqXnlm6z-37" value="Historical" style="ellipse;whiteSpace=wrap;html=1;aspect=fixed;fillColor=#ffe6cc;strokeColor=#d79b00;" parent="1" vertex="1">
          <mxGeometry x="640" y="200" width="80" height="80" as="geometry" />
        </mxCell>
        <mxCell id="RIXVrHPqZjZGEqXnlm6z-43" style="edgeStyle=none;rounded=0;orthogonalLoop=1;jettySize=auto;html=1;endArrow=none;endFill=0;fillColor=#ffe6cc;strokeColor=#d79b00;" parent="1" source="RIXVrHPqZjZGEqXnlm6z-38" target="RIXVrHPqZjZGEqXnlm6z-2" edge="1">
          <mxGeometry relative="1" as="geometry" />
        </mxCell>
        <mxCell id="RIXVrHPqZjZGEqXnlm6z-38" value="Real-time" style="ellipse;whiteSpace=wrap;html=1;aspect=fixed;fillColor=#ffe6cc;strokeColor=#d79b00;" parent="1" vertex="1">
          <mxGeometry x="700" y="300" width="80" height="80" as="geometry" />
        </mxCell>
        <mxCell id="RIXVrHPqZjZGEqXnlm6z-41" style="edgeStyle=none;rounded=0;orthogonalLoop=1;jettySize=auto;html=1;endArrow=none;endFill=0;fillColor=#fff2cc;strokeColor=#d6b656;" parent="1" source="RIXVrHPqZjZGEqXnlm6z-39" target="RIXVrHPqZjZGEqXnlm6z-3" edge="1">
          <mxGeometry relative="1" as="geometry" />
        </mxCell>
        <mxCell id="RIXVrHPqZjZGEqXnlm6z-39" value="Horizontal Scaling" style="ellipse;whiteSpace=wrap;html=1;aspect=fixed;fillColor=#fff2cc;strokeColor=#d6b656;" parent="1" vertex="1">
          <mxGeometry x="80" y="440" width="80" height="80" as="geometry" />
        </mxCell>
        <mxCell id="yy4eT_4TmovEYwxp9Cs3-32" style="edgeStyle=none;rounded=0;orthogonalLoop=1;jettySize=auto;html=1;endArrow=none;endFill=0;strokeColor=#d6b656;fillColor=#fff2cc;" parent="1" source="RIXVrHPqZjZGEqXnlm6z-40" target="RIXVrHPqZjZGEqXnlm6z-3" edge="1">
          <mxGeometry relative="1" as="geometry" />
        </mxCell>
        <mxCell id="RIXVrHPqZjZGEqXnlm6z-40" value="Vertical Scaling" style="ellipse;whiteSpace=wrap;html=1;aspect=fixed;fillColor=#fff2cc;strokeColor=#d6b656;" parent="1" vertex="1">
          <mxGeometry x="100" y="550" width="80" height="80" as="geometry" />
        </mxCell>
        <mxCell id="yy4eT_4TmovEYwxp9Cs3-17" style="edgeStyle=none;rounded=0;orthogonalLoop=1;jettySize=auto;html=1;endArrow=none;endFill=0;fillColor=#f8cecc;strokeColor=#B85450;" parent="1" source="yy4eT_4TmovEYwxp9Cs3-1" target="RIXVrHPqZjZGEqXnlm6z-27" edge="1">
          <mxGeometry relative="1" as="geometry" />
        </mxCell>
        <mxCell id="yy4eT_4TmovEYwxp9Cs3-1" value="Encrypted Storage" style="ellipse;whiteSpace=wrap;html=1;aspect=fixed;fillColor=#ffe6cc;strokeColor=#B85450;" parent="1" vertex="1">
          <mxGeometry x="-55" y="740" width="80" height="80" as="geometry" />
        </mxCell>
        <mxCell id="yy4eT_4TmovEYwxp9Cs3-18" style="edgeStyle=none;rounded=0;orthogonalLoop=1;jettySize=auto;html=1;endArrow=none;endFill=0;fillColor=#f8cecc;strokeColor=#B85450;" parent="1" source="yy4eT_4TmovEYwxp9Cs3-2" target="RIXVrHPqZjZGEqXnlm6z-27" edge="1">
          <mxGeometry relative="1" as="geometry" />
        </mxCell>
        <mxCell id="yy4eT_4TmovEYwxp9Cs3-2" value="Key Repository" style="ellipse;whiteSpace=wrap;html=1;aspect=fixed;fillColor=#ffe6cc;strokeColor=#B85450;" parent="1" vertex="1">
          <mxGeometry x="-15" y="840" width="80" height="80" as="geometry" />
        </mxCell>
        <mxCell id="yy4eT_4TmovEYwxp9Cs3-16" style="rounded=0;orthogonalLoop=1;jettySize=auto;html=1;endArrow=none;endFill=0;fillColor=#f8cecc;strokeColor=#B85450;" parent="1" source="yy4eT_4TmovEYwxp9Cs3-3" target="RIXVrHPqZjZGEqXnlm6z-27" edge="1">
          <mxGeometry relative="1" as="geometry" />
        </mxCell>
        <mxCell id="yy4eT_4TmovEYwxp9Cs3-3" value="Isolated Storage" style="ellipse;whiteSpace=wrap;html=1;aspect=fixed;fillColor=#ffe6cc;strokeColor=#B85450;" parent="1" vertex="1">
          <mxGeometry x="-35" y="630" width="80" height="80" as="geometry" />
        </mxCell>
        <mxCell id="yy4eT_4TmovEYwxp9Cs3-19" style="edgeStyle=none;rounded=0;orthogonalLoop=1;jettySize=auto;html=1;endArrow=none;endFill=0;fillColor=#f8cecc;strokeColor=#B85450;" parent="1" source="yy4eT_4TmovEYwxp9Cs3-4" target="RIXVrHPqZjZGEqXnlm6z-27" edge="1">
          <mxGeometry relative="1" as="geometry" />
        </mxCell>
        <mxCell id="yy4eT_4TmovEYwxp9Cs3-4" value="Protected File" style="ellipse;whiteSpace=wrap;html=1;aspect=fixed;fillColor=#ffe6cc;strokeColor=#B85450;" parent="1" vertex="1">
          <mxGeometry x="95" y="890" width="80" height="80" as="geometry" />
        </mxCell>
        <mxCell id="yy4eT_4TmovEYwxp9Cs3-20" style="edgeStyle=none;rounded=0;orthogonalLoop=1;jettySize=auto;html=1;endArrow=none;endFill=0;fillColor=#f8cecc;strokeColor=#B85450;" parent="1" source="yy4eT_4TmovEYwxp9Cs3-6" target="RIXVrHPqZjZGEqXnlm6z-30" edge="1">
          <mxGeometry relative="1" as="geometry" />
        </mxCell>
        <mxCell id="yy4eT_4TmovEYwxp9Cs3-6" value="Vendor Support" style="ellipse;whiteSpace=wrap;html=1;aspect=fixed;fillColor=#d5e8d4;strokeColor=#B85450;" parent="1" vertex="1">
          <mxGeometry x="200" y="950" width="80" height="80" as="geometry" />
        </mxCell>
        <mxCell id="yy4eT_4TmovEYwxp9Cs3-21" style="edgeStyle=none;rounded=0;orthogonalLoop=1;jettySize=auto;html=1;endArrow=none;endFill=0;fillColor=#f8cecc;strokeColor=#B85450;" parent="1" source="yy4eT_4TmovEYwxp9Cs3-7" target="RIXVrHPqZjZGEqXnlm6z-31" edge="1">
          <mxGeometry relative="1" as="geometry" />
        </mxCell>
        <mxCell id="yy4eT_4TmovEYwxp9Cs3-7" value="Software &amp;amp; Frameworks" style="ellipse;whiteSpace=wrap;html=1;aspect=fixed;fillColor=#dae8fc;strokeColor=#B85450;" parent="1" vertex="1">
          <mxGeometry x="320" y="970" width="80" height="80" as="geometry" />
        </mxCell>
        <mxCell id="yy4eT_4TmovEYwxp9Cs3-22" style="edgeStyle=none;rounded=0;orthogonalLoop=1;jettySize=auto;html=1;endArrow=none;endFill=0;fillColor=#f8cecc;strokeColor=#B85450;" parent="1" source="yy4eT_4TmovEYwxp9Cs3-8" target="RIXVrHPqZjZGEqXnlm6z-31" edge="1">
          <mxGeometry relative="1" as="geometry" />
        </mxCell>
        <mxCell id="yy4eT_4TmovEYwxp9Cs3-8" value="Directory Traversal" style="ellipse;whiteSpace=wrap;html=1;aspect=fixed;fillColor=#dae8fc;strokeColor=#B85450;" parent="1" vertex="1">
          <mxGeometry x="425" y="1000" width="80" height="80" as="geometry" />
        </mxCell>
        <mxCell id="yy4eT_4TmovEYwxp9Cs3-23" style="edgeStyle=none;rounded=0;orthogonalLoop=1;jettySize=auto;html=1;endArrow=none;endFill=0;fillColor=#f8cecc;strokeColor=#B85450;" parent="1" source="yy4eT_4TmovEYwxp9Cs3-9" target="RIXVrHPqZjZGEqXnlm6z-31" edge="1">
          <mxGeometry relative="1" as="geometry" />
        </mxCell>
        <mxCell id="yy4eT_4TmovEYwxp9Cs3-9" value="Form-Field Corruption" style="ellipse;whiteSpace=wrap;html=1;aspect=fixed;fillColor=#dae8fc;strokeColor=#B85450;" parent="1" vertex="1">
          <mxGeometry x="525" y="960" width="80" height="80" as="geometry" />
        </mxCell>
        <mxCell id="yy4eT_4TmovEYwxp9Cs3-24" style="edgeStyle=none;rounded=0;orthogonalLoop=1;jettySize=auto;html=1;endArrow=none;endFill=0;fillColor=#f8cecc;strokeColor=#B85450;" parent="1" source="yy4eT_4TmovEYwxp9Cs3-10" target="RIXVrHPqZjZGEqXnlm6z-31" edge="1">
          <mxGeometry relative="1" as="geometry" />
        </mxCell>
        <mxCell id="yy4eT_4TmovEYwxp9Cs3-10" value="SQL Injection" style="ellipse;whiteSpace=wrap;html=1;aspect=fixed;fillColor=#dae8fc;strokeColor=#B85450;" parent="1" vertex="1">
          <mxGeometry x="585" y="880" width="80" height="80" as="geometry" />
        </mxCell>
        <mxCell id="yy4eT_4TmovEYwxp9Cs3-25" style="edgeStyle=none;rounded=0;orthogonalLoop=1;jettySize=auto;html=1;endArrow=none;endFill=0;fillColor=#f8cecc;strokeColor=#B85450;" parent="1" source="yy4eT_4TmovEYwxp9Cs3-12" target="RIXVrHPqZjZGEqXnlm6z-32" edge="1">
          <mxGeometry relative="1" as="geometry" />
        </mxCell>
        <mxCell id="yy4eT_4TmovEYwxp9Cs3-12" value="Permissions &lt;br&gt;&amp;amp; Privileges" style="ellipse;whiteSpace=wrap;html=1;aspect=fixed;fillColor=#fff2cc;strokeColor=#B85450;" parent="1" vertex="1">
          <mxGeometry x="780" y="780" width="80" height="80" as="geometry" />
        </mxCell>
        <mxCell id="yy4eT_4TmovEYwxp9Cs3-26" style="edgeStyle=none;rounded=0;orthogonalLoop=1;jettySize=auto;html=1;endArrow=none;endFill=0;fillColor=#f8cecc;strokeColor=#B85450;" parent="1" source="yy4eT_4TmovEYwxp9Cs3-13" target="RIXVrHPqZjZGEqXnlm6z-32" edge="1">
          <mxGeometry relative="1" as="geometry" />
        </mxCell>
        <mxCell id="yy4eT_4TmovEYwxp9Cs3-13" value="Automated Data Access" style="ellipse;whiteSpace=wrap;html=1;aspect=fixed;fillColor=#fff2cc;strokeColor=#B85450;" parent="1" vertex="1">
          <mxGeometry x="810" y="690" width="80" height="80" as="geometry" />
        </mxCell>
        <mxCell id="yy4eT_4TmovEYwxp9Cs3-27" style="edgeStyle=none;rounded=0;orthogonalLoop=1;jettySize=auto;html=1;endArrow=none;endFill=0;fillColor=#f8cecc;strokeColor=#B85450;" parent="1" source="yy4eT_4TmovEYwxp9Cs3-14" target="RIXVrHPqZjZGEqXnlm6z-32" edge="1">
          <mxGeometry relative="1" as="geometry" />
        </mxCell>
        <mxCell id="yy4eT_4TmovEYwxp9Cs3-14" value="Validation" style="ellipse;whiteSpace=wrap;html=1;aspect=fixed;fillColor=#fff2cc;strokeColor=#B85450;" parent="1" vertex="1">
          <mxGeometry x="790" y="590" width="80" height="80" as="geometry" />
        </mxCell>
        <mxCell id="yy4eT_4TmovEYwxp9Cs3-28" style="edgeStyle=none;rounded=0;orthogonalLoop=1;jettySize=auto;html=1;endArrow=none;endFill=0;fillColor=#f8cecc;strokeColor=#B85450;" parent="1" source="yy4eT_4TmovEYwxp9Cs3-15" target="RIXVrHPqZjZGEqXnlm6z-32" edge="1">
          <mxGeometry relative="1" as="geometry" />
        </mxCell>
        <mxCell id="yy4eT_4TmovEYwxp9Cs3-15" value="Isolated Server" style="ellipse;whiteSpace=wrap;html=1;aspect=fixed;fillColor=#fff2cc;strokeColor=#B85450;" parent="1" vertex="1">
          <mxGeometry x="680" y="560" width="80" height="80" as="geometry" />
        </mxCell>
        <mxCell id="yy4eT_4TmovEYwxp9Cs3-30" style="edgeStyle=none;rounded=0;orthogonalLoop=1;jettySize=auto;html=1;endArrow=none;endFill=0;strokeColor=#B85450;" parent="1" source="yy4eT_4TmovEYwxp9Cs3-29" target="RIXVrHPqZjZGEqXnlm6z-32" edge="1">
          <mxGeometry relative="1" as="geometry" />
        </mxCell>
        <mxCell id="yy4eT_4TmovEYwxp9Cs3-29" value="Logging" style="ellipse;whiteSpace=wrap;html=1;aspect=fixed;fillColor=#fff2cc;strokeColor=#B85450;" parent="1" vertex="1">
          <mxGeometry x="690" y="840" width="80" height="80" as="geometry" />
        </mxCell>
      </root>
    </mxGraphModel>
  </diagram>
</mxfile>
